<svg width="100%" height="100%" viewBox="0 0 27 27" fill="none" xmlns="http://www.w3.org/2000/svg">
<g id="XMLID_2_">
<path id="XMLID_174_" d="M13.5 26.5C20.6797 26.5 26.5 20.6797 26.5 13.5C26.5 6.3203 20.6797 0.5 13.5 0.5C6.3203 0.5 0.5 6.3203 0.5 13.5C0.5 20.6797 6.3203 26.5 13.5 26.5Z" stroke="var(--stroke-0, white)" stroke-miterlimit="10" stroke-linecap="round" stroke-linejoin="round"/>
<path id="XMLID_72_" d="M10.3624 15.7413V15.9386C10.3624 17.0682 11.2769 17.9827 12.4065 17.9827H14.5941C15.7238 17.9827 16.6382 17.0682 16.6382 15.9386C16.6382 15.0241 16.0375 14.2262 15.1589 13.9751L11.8506 13.0338C10.972 12.7827 10.3713 11.9848 10.3713 11.0703C10.3713 9.94065 11.2858 9.02617 12.4155 9.02617H14.6031C15.7327 9.02617 16.6472 9.94065 16.6472 11.0703V11.2676" stroke="var(--stroke-0, white)" stroke-miterlimit="10" stroke-linecap="round" stroke-linejoin="round"/>
<path id="XMLID_3_" d="M13.4997 19.7759V17.9828" stroke="var(--stroke-0, white)" stroke-miterlimit="10" stroke-linecap="round" stroke-linejoin="round"/>
<path id="XMLID_4_" d="M13.4997 9.01716V7.22406" stroke="var(--stroke-0, white)" stroke-miterlimit="10" stroke-linecap="round" stroke-linejoin="round"/>
<path id="XMLID_7_" d="M10.3619 4.63319C6.70395 5.92423 4.08602 9.40285 4.08602 13.5001C4.08602 17.5973 6.70395 21.0759 10.3619 22.367" stroke="var(--stroke-0, white)" stroke-miterlimit="10" stroke-linecap="round" stroke-linejoin="round"/>
<path id="XMLID_6_" d="M16.6376 22.367C20.2956 21.0759 22.9135 17.5973 22.9135 13.5001C22.9135 9.40285 20.2956 5.92423 16.6376 4.63319" stroke="var(--stroke-0, white)" stroke-miterlimit="10" stroke-linecap="round" stroke-linejoin="round"/>
</g>
</svg>
