<svg preserveAspectRatio="none" width="100%" height="100%" overflow="visible" style="display: block;" viewBox="0 0 18.3333 18.3333" fill="none" xmlns="http://www.w3.org/2000/svg">
<g id="XMLID_2_">
<path id="XMLID_174_" d="M9.16667 17.8333C13.9531 17.8333 17.8333 13.9531 17.8333 9.16667C17.8333 4.3802 13.9531 0.5 9.16667 0.5C4.3802 0.5 0.5 4.3802 0.5 9.16667C0.5 13.9531 4.3802 17.8333 9.16667 17.8333Z" stroke="var(--stroke-0, white)" stroke-miterlimit="10" stroke-linecap="round" stroke-linejoin="round"/>
<path id="XMLID_72_" d="M7.07492 10.6609V10.7924C7.07492 11.5455 7.68457 12.1551 8.43767 12.1551H9.89606C10.6492 12.1551 11.2588 11.5455 11.2588 10.7924C11.2588 10.1827 10.8584 9.65078 10.2726 9.48342L8.0671 8.85584C7.48135 8.68848 7.08089 8.15653 7.08089 7.54687C7.08089 6.79377 7.69055 6.18411 8.44365 6.18411H9.90204C10.6551 6.18411 11.2648 6.79377 11.2648 7.54687V7.67837" stroke="var(--stroke-0, white)" stroke-miterlimit="10" stroke-linecap="round" stroke-linejoin="round"/>
<path id="XMLID_3_" d="M9.16648 13.3506V12.1552" stroke="var(--stroke-0, white)" stroke-miterlimit="10" stroke-linecap="round" stroke-linejoin="round"/>
<path id="XMLID_4_" d="M9.16648 6.17811V4.9827" stroke="var(--stroke-0, white)" stroke-miterlimit="10" stroke-linecap="round" stroke-linejoin="round"/>
<path id="XMLID_7_" d="M7.07459 3.25546C4.63597 4.11615 2.89068 6.43523 2.89068 9.16672C2.89068 11.8982 4.63597 14.2173 7.07459 15.078" stroke="var(--stroke-0, white)" stroke-miterlimit="10" stroke-linecap="round" stroke-linejoin="round"/>
<path id="XMLID_6_" d="M11.2584 15.078C13.697 14.2173 15.4423 11.8982 15.4423 9.16672C15.4423 6.43523 13.697 4.11615 11.2584 3.25546" stroke="var(--stroke-0, white)" stroke-miterlimit="10" stroke-linecap="round" stroke-linejoin="round"/>
</g>
</svg>
